<svg width="75" height="48" viewBox="0 0 75 48" fill="none" xmlns="http://www.w3.org/2000/svg">
<path fill-rule="evenodd" clip-rule="evenodd" d="M36.8875 24.3003C36.9371 24.2479 36.9961 24.2085 37.0551 24.1823V21.7202H23.4956C23.2219 21.7202 23 21.4737 23 21.1695C23 20.8654 23.2219 20.6189 23.4956 20.6189H25.6411V3.67496H23.4956C23.2219 3.67496 23 3.42849 23 3.12433C23 2.82016 23.2219 2.57369 23.4956 2.57369H36.9772V0.963724C36.9772 0.659562 37.1991 0.413086 37.4729 0.413086C37.7466 0.413086 37.9685 0.659562 37.9685 0.963724V2.57369H51.4501C51.7239 2.57369 51.9457 2.82016 51.9457 3.12433C51.9457 3.42849 51.7239 3.67496 51.4501 3.67496H49.3377V20.6189H51.5044C51.7781 20.6189 52 20.8654 52 21.1695C52 21.4737 51.7781 21.7202 51.5044 21.7202H44.7754H38.0464V24.2374C38.07 24.2557 38.0936 24.2741 38.1148 24.2977L41.2114 27.5701C41.4097 27.7798 41.4168 28.1259 41.228 28.3462C41.0391 28.5665 40.7276 28.5743 40.5293 28.3645L38.0464 25.7425V28.1233C38.0464 28.4275 37.8245 28.674 37.5507 28.674C37.277 28.674 37.0551 28.4275 37.0551 28.1233V25.6376L34.4707 28.3672C34.2724 28.5769 33.9585 28.5665 33.772 28.3488C33.5832 28.1286 33.5903 27.7798 33.7886 27.5727L36.8875 24.3003ZM48.3464 20.6189V3.67496H26.6324V20.6189H48.3464Z" fill="#010002"/>
<path d="M12.3552 38.7038C13.1152 38.7038 13.7719 38.8472 14.3252 39.1338C14.8852 39.4138 15.3119 39.8172 15.6052 40.3438C15.9052 40.8705 16.0552 41.4905 16.0552 42.2038C16.0552 42.9172 15.9052 43.5372 15.6052 44.0638C15.3119 44.5838 14.8852 44.9838 14.3252 45.2638C13.7719 45.5372 13.1152 45.6738 12.3552 45.6738H10.1852V38.7038H12.3552ZM12.3552 44.9238C13.2552 44.9238 13.9419 44.6872 14.4152 44.2138C14.8885 43.7338 15.1252 43.0638 15.1252 42.2038C15.1252 41.3372 14.8852 40.6605 14.4052 40.1738C13.9319 39.6872 13.2485 39.4438 12.3552 39.4438H11.0952V44.9238H12.3552ZM16.9555 42.9138C16.9555 42.3538 17.0688 41.8638 17.2955 41.4438C17.5222 41.0172 17.8322 40.6872 18.2255 40.4538C18.6255 40.2205 19.0688 40.1038 19.5555 40.1038C20.0355 40.1038 20.4522 40.2072 20.8055 40.4138C21.1588 40.6205 21.4222 40.8805 21.5955 41.1938V40.1938H22.5155V45.6738H21.5955V44.6538C21.4155 44.9738 21.1455 45.2405 20.7855 45.4538C20.4322 45.6605 20.0188 45.7638 19.5455 45.7638C19.0588 45.7638 18.6188 45.6438 18.2255 45.4038C17.8322 45.1638 17.5222 44.8272 17.2955 44.3938C17.0688 43.9605 16.9555 43.4672 16.9555 42.9138ZM21.5955 42.9238C21.5955 42.5105 21.5122 42.1505 21.3455 41.8438C21.1788 41.5372 20.9522 41.3038 20.6655 41.1438C20.3855 40.9772 20.0755 40.8938 19.7355 40.8938C19.3955 40.8938 19.0855 40.9738 18.8055 41.1338C18.5255 41.2938 18.3022 41.5272 18.1355 41.8338C17.9688 42.1405 17.8855 42.5005 17.8855 42.9138C17.8855 43.3338 17.9688 43.7005 18.1355 44.0138C18.3022 44.3205 18.5255 44.5572 18.8055 44.7238C19.0855 44.8838 19.3955 44.9638 19.7355 44.9638C20.0755 44.9638 20.3855 44.8838 20.6655 44.7238C20.9522 44.5572 21.1788 44.3205 21.3455 44.0138C21.5122 43.7005 21.5955 43.3372 21.5955 42.9238ZM26.0333 45.7638C25.6133 45.7638 25.2366 45.6938 24.9033 45.5538C24.57 45.4072 24.3066 45.2072 24.1133 44.9538C23.92 44.6938 23.8133 44.3972 23.7933 44.0638H24.7333C24.76 44.3372 24.8866 44.5605 25.1133 44.7338C25.3467 44.9072 25.65 44.9938 26.0233 44.9938C26.37 44.9938 26.6433 44.9172 26.8433 44.7638C27.0433 44.6105 27.1433 44.4172 27.1433 44.1838C27.1433 43.9438 27.0367 43.7672 26.8233 43.6538C26.61 43.5338 26.28 43.4172 25.8333 43.3038C25.4267 43.1972 25.0933 43.0905 24.8333 42.9838C24.58 42.8705 24.36 42.7072 24.1733 42.4938C23.9933 42.2738 23.9033 41.9872 23.9033 41.6338C23.9033 41.3538 23.9866 41.0972 24.1533 40.8638C24.32 40.6305 24.5566 40.4472 24.8633 40.3138C25.17 40.1738 25.52 40.1038 25.9133 40.1038C26.52 40.1038 27.01 40.2572 27.3833 40.5638C27.7567 40.8705 27.9567 41.2905 27.9833 41.8238H27.0733C27.0533 41.5372 26.9366 41.3072 26.7233 41.1338C26.5167 40.9605 26.2367 40.8738 25.8833 40.8738C25.5567 40.8738 25.2967 40.9438 25.1033 41.0838C24.91 41.2238 24.8133 41.4072 24.8133 41.6338C24.8133 41.8138 24.87 41.9638 24.9833 42.0838C25.1033 42.1972 25.25 42.2905 25.4233 42.3638C25.6033 42.4305 25.85 42.5072 26.1633 42.5938C26.5567 42.7005 26.8767 42.8072 27.1233 42.9138C27.37 43.0138 27.58 43.1672 27.7533 43.3738C27.9333 43.5805 28.0267 43.8505 28.0333 44.1838C28.0333 44.4838 27.95 44.7538 27.7833 44.9938C27.6167 45.2338 27.38 45.4238 27.0733 45.5638C26.7733 45.6972 26.4267 45.7638 26.0333 45.7638ZM32.0779 40.0938C32.4913 40.0938 32.8646 40.1838 33.1979 40.3638C33.5313 40.5372 33.7913 40.8005 33.9779 41.1538C34.1713 41.5072 34.2679 41.9372 34.2679 42.4438V45.6738H33.3679V42.5738C33.3679 42.0272 33.2313 41.6105 32.9579 41.3238C32.6846 41.0305 32.3113 40.8838 31.8379 40.8838C31.3579 40.8838 30.9746 41.0338 30.6879 41.3338C30.4079 41.6338 30.2679 42.0705 30.2679 42.6438V45.6738H29.3579V38.2738H30.2679V40.9738C30.4479 40.6938 30.6946 40.4772 31.0079 40.3238C31.3279 40.1705 31.6846 40.0938 32.0779 40.0938ZM36.7044 41.2138C36.8911 40.8872 37.1644 40.6205 37.5244 40.4138C37.8844 40.2072 38.2944 40.1038 38.7544 40.1038C39.2477 40.1038 39.6911 40.2205 40.0844 40.4538C40.4777 40.6872 40.7877 41.0172 41.0144 41.4438C41.2411 41.8638 41.3544 42.3538 41.3544 42.9138C41.3544 43.4672 41.2411 43.9605 41.0144 44.3938C40.7877 44.8272 40.4744 45.1638 40.0744 45.4038C39.6811 45.6438 39.2411 45.7638 38.7544 45.7638C38.2811 45.7638 37.8644 45.6605 37.5044 45.4538C37.1511 45.2472 36.8844 44.9838 36.7044 44.6638V45.6738H35.7944V38.2738H36.7044V41.2138ZM40.4244 42.9138C40.4244 42.5005 40.3411 42.1405 40.1744 41.8338C40.0077 41.5272 39.7811 41.2938 39.4944 41.1338C39.2144 40.9738 38.9044 40.8938 38.5644 40.8938C38.2311 40.8938 37.9211 40.9772 37.6344 41.1438C37.3544 41.3038 37.1277 41.5405 36.9544 41.8538C36.7877 42.1605 36.7044 42.5172 36.7044 42.9238C36.7044 43.3372 36.7877 43.7005 36.9544 44.0138C37.1277 44.3205 37.3544 44.5572 37.6344 44.7238C37.9211 44.8838 38.2311 44.9638 38.5644 44.9638C38.9044 44.9638 39.2144 44.8838 39.4944 44.7238C39.7811 44.5572 40.0077 44.3205 40.1744 44.0138C40.3411 43.7005 40.4244 43.3338 40.4244 42.9138ZM44.9822 45.7638C44.4689 45.7638 44.0022 45.6472 43.5822 45.4138C43.1689 45.1805 42.8422 44.8505 42.6022 44.4238C42.3689 43.9905 42.2522 43.4905 42.2522 42.9238C42.2522 42.3638 42.3722 41.8705 42.6122 41.4438C42.8589 41.0105 43.1922 40.6805 43.6122 40.4538C44.0322 40.2205 44.5022 40.1038 45.0222 40.1038C45.5422 40.1038 46.0122 40.2205 46.4322 40.4538C46.8522 40.6805 47.1822 41.0072 47.4222 41.4338C47.6689 41.8605 47.7922 42.3572 47.7922 42.9238C47.7922 43.4905 47.6656 43.9905 47.4122 44.4238C47.1656 44.8505 46.8289 45.1805 46.4022 45.4138C45.9756 45.6472 45.5022 45.7638 44.9822 45.7638ZM44.9822 44.9638C45.3089 44.9638 45.6156 44.8872 45.9022 44.7338C46.1889 44.5805 46.4189 44.3505 46.5922 44.0438C46.7722 43.7372 46.8622 43.3638 46.8622 42.9238C46.8622 42.4838 46.7756 42.1105 46.6022 41.8038C46.4289 41.4972 46.2022 41.2705 45.9222 41.1238C45.6422 40.9705 45.3389 40.8938 45.0122 40.8938C44.6789 40.8938 44.3722 40.9705 44.0922 41.1238C43.8189 41.2705 43.5989 41.4972 43.4322 41.8038C43.2656 42.1105 43.1822 42.4838 43.1822 42.9238C43.1822 43.3705 43.2622 43.7472 43.4222 44.0538C43.5889 44.3605 43.8089 44.5905 44.0822 44.7438C44.3556 44.8905 44.6556 44.9638 44.9822 44.9638ZM48.6887 42.9138C48.6887 42.3538 48.802 41.8638 49.0287 41.4438C49.2554 41.0172 49.5654 40.6872 49.9587 40.4538C50.3587 40.2205 50.802 40.1038 51.2887 40.1038C51.7687 40.1038 52.1854 40.2072 52.5387 40.4138C52.892 40.6205 53.1554 40.8805 53.3287 41.1938V40.1938H54.2487V45.6738H53.3287V44.6538C53.1487 44.9738 52.8787 45.2405 52.5187 45.4538C52.1654 45.6605 51.752 45.7638 51.2787 45.7638C50.792 45.7638 50.352 45.6438 49.9587 45.4038C49.5654 45.1638 49.2554 44.8272 49.0287 44.3938C48.802 43.9605 48.6887 43.4672 48.6887 42.9138ZM53.3287 42.9238C53.3287 42.5105 53.2454 42.1505 53.0787 41.8438C52.912 41.5372 52.6854 41.3038 52.3987 41.1438C52.1187 40.9772 51.8087 40.8938 51.4687 40.8938C51.1287 40.8938 50.8187 40.9738 50.5387 41.1338C50.2587 41.2938 50.0354 41.5272 49.8687 41.8338C49.702 42.1405 49.6187 42.5005 49.6187 42.9138C49.6187 43.3338 49.702 43.7005 49.8687 44.0138C50.0354 44.3205 50.2587 44.5572 50.5387 44.7238C50.8187 44.8838 51.1287 44.9638 51.4687 44.9638C51.8087 44.9638 52.1187 44.8838 52.3987 44.7238C52.6854 44.5572 52.912 44.3205 53.0787 44.0138C53.2454 43.7005 53.3287 43.3372 53.3287 42.9238ZM56.7365 41.0838C56.8965 40.7705 57.1232 40.5272 57.4165 40.3538C57.7165 40.1805 58.0799 40.0938 58.5065 40.0938V41.0338H58.2665C57.2465 41.0338 56.7365 41.5872 56.7365 42.6938V45.6738H55.8265V40.1938H56.7365V41.0838ZM59.257 42.9138C59.257 42.3538 59.3703 41.8638 59.597 41.4438C59.8237 41.0172 60.1337 40.6872 60.527 40.4538C60.927 40.2205 61.3737 40.1038 61.867 40.1038C62.2937 40.1038 62.6903 40.2038 63.057 40.4038C63.4237 40.5972 63.7037 40.8538 63.897 41.1738V38.2738H64.817V45.6738H63.897V44.6438C63.717 44.9705 63.4503 45.2405 63.097 45.4538C62.7437 45.6605 62.3303 45.7638 61.857 45.7638C61.3703 45.7638 60.927 45.6438 60.527 45.4038C60.1337 45.1638 59.8237 44.8272 59.597 44.3938C59.3703 43.9605 59.257 43.4672 59.257 42.9138ZM63.897 42.9238C63.897 42.5105 63.8137 42.1505 63.647 41.8438C63.4803 41.5372 63.2537 41.3038 62.967 41.1438C62.687 40.9772 62.377 40.8938 62.037 40.8938C61.697 40.8938 61.387 40.9738 61.107 41.1338C60.827 41.2938 60.6037 41.5272 60.437 41.8338C60.2703 42.1405 60.187 42.5005 60.187 42.9138C60.187 43.3338 60.2703 43.7005 60.437 44.0138C60.6037 44.3205 60.827 44.5572 61.107 44.7238C61.387 44.8838 61.697 44.9638 62.037 44.9638C62.377 44.9638 62.687 44.8838 62.967 44.7238C63.2537 44.5572 63.4803 44.3205 63.647 44.0138C63.8137 43.7005 63.897 43.3372 63.897 42.9238Z" fill="#010002"/>
</svg>
