<svg width="19" height="24" viewBox="0 0 19 24" fill="none" xmlns="http://www.w3.org/2000/svg">
<path d="M13.7534 0.950195H13.9106C14.0367 2.50873 13.4418 3.67327 12.7189 4.51659C12.0095 5.35409 11.038 6.16635 9.46689 6.0431C9.36208 4.50689 9.95793 3.42872 10.6799 2.58734C11.3496 1.80322 12.5772 1.10547 13.7534 0.950195ZM18.5095 17.1722V17.2159C18.068 18.5531 17.4381 19.6992 16.6695 20.7628C15.9679 21.7284 15.1081 23.0279 13.5728 23.0279C12.2462 23.0279 11.3651 22.1749 10.0055 22.1516C8.56728 22.1283 7.77637 22.8648 6.46141 23.0502H6.01306C5.04747 22.9104 4.2682 22.1457 3.70049 21.4567C2.02646 19.4207 0.732858 16.7908 0.492188 13.4253V12.4364C0.594084 10.0278 1.76444 8.0694 3.32007 7.1203C4.14107 6.61567 5.2697 6.18576 6.52643 6.37791C7.06503 6.46137 7.61527 6.64575 8.09758 6.8282C8.55466 7.00385 9.12626 7.31536 9.66777 7.29886C10.0346 7.28819 10.3995 7.09701 10.7692 6.96212C11.8522 6.57103 12.9139 6.12268 14.3133 6.33327C15.9951 6.58752 17.1887 7.33477 17.9263 8.48766C16.5036 9.39309 15.3789 10.7575 15.571 13.0876C15.7418 15.2041 16.9723 16.4424 18.5095 17.1722Z" fill="black"/>
</svg>
