<svg width="23" height="24" viewBox="0 0 23 24" fill="none" xmlns="http://www.w3.org/2000/svg">
<path d="M21.7156 10.079L12.7012 10.0786C12.3031 10.0786 11.9805 10.4012 11.9805 10.7993V13.679C11.9805 14.0769 12.3031 14.3996 12.7011 14.3996H17.7775C17.2216 15.8422 16.1841 17.0503 14.8605 17.818L17.025 21.565C20.4972 19.5569 22.55 16.0334 22.55 12.0892C22.55 11.5276 22.5086 11.1261 22.4258 10.6741C22.3629 10.3306 22.0647 10.079 21.7156 10.079Z" fill="#167EE6"/>
<path d="M11.5002 18.7262C9.01596 18.7262 6.84723 17.3689 5.68245 15.3604L1.93555 17.52C3.84232 20.8248 7.41432 23.0502 11.5002 23.0502C13.5046 23.0502 15.396 22.5105 17.0252 21.57V21.5648L14.8607 17.8178C13.8706 18.392 12.7248 18.7262 11.5002 18.7262Z" fill="#12B347"/>
<path d="M17.025 21.5701V21.5649L14.8605 17.8179C13.8704 18.3921 12.7247 18.7263 11.5 18.7263V23.0503C13.5044 23.0503 15.3958 22.5106 17.025 21.5701Z" fill="#0F993E" fill-opacity="0.68"/>
<path d="M4.77411 12.0003C4.77411 10.7758 5.10829 9.63019 5.68241 8.64014L1.93551 6.48047C0.989832 8.1046 0.450195 9.99079 0.450195 12.0003C0.450195 14.0099 0.989832 15.8961 1.93551 17.5202L5.68241 15.3605C5.10829 14.3705 4.77411 13.2249 4.77411 12.0003Z" fill="#FFD500"/>
<path d="M11.5002 5.27411C13.1202 5.27411 14.6083 5.84975 15.7705 6.80726C16.0573 7.04345 16.474 7.0264 16.7367 6.76375L18.777 4.72338C19.075 4.42538 19.0538 3.93758 18.7355 3.66142C16.7881 1.97202 14.2544 0.950195 11.5002 0.950195C7.41432 0.950195 3.84232 3.17561 1.93555 6.48033L5.68245 8.64C6.84723 6.63145 9.01596 5.27411 11.5002 5.27411Z" fill="#FF4B26"/>
<path d="M15.7703 6.80726C16.057 7.04345 16.4738 7.0264 16.7364 6.76375L18.7768 4.72338C19.0748 4.42538 19.0535 3.93758 18.7352 3.66142C16.7879 1.97198 14.2542 0.950195 11.5 0.950195V5.27411C13.1199 5.27411 14.608 5.84975 15.7703 6.80726Z" fill="#D93F21"/>
</svg>
