<svg width="75" height="44" viewBox="0 0 75 44" fill="none" xmlns="http://www.w3.org/2000/svg">
<path d="M34.6572 21.4457V18.379C34.6572 17.599 35.2931 16.9651 36.081 16.9599H38.9671C39.7587 16.9599 40.4005 17.5953 40.4005 18.379V18.379V21.4552C40.4003 22.1175 40.9343 22.6588 41.603 22.6743H43.5271C45.4451 22.6743 47 21.135 47 19.2361V19.2361V10.5122C46.9898 9.76514 46.6355 9.06367 46.038 8.60735L39.4577 3.35962C38.3049 2.44588 36.6662 2.44588 35.5134 3.35962L28.962 8.61687C28.3623 9.07134 28.0074 9.77398 28 10.5217V19.2361C28 21.135 29.5549 22.6743 31.4729 22.6743H33.397C34.0824 22.6743 34.638 22.1243 34.638 21.4457V21.4457" stroke="#010002" stroke-width="1.5" stroke-linecap="round" stroke-linejoin="round"/>
<path d="M28.6679 34.7043V41.6743H27.7579V38.5143H24.2079V41.6743H23.2979V34.7043H24.2079V37.7643H27.7579V34.7043H28.6679ZM32.6517 41.7643C32.1384 41.7643 31.6717 41.6476 31.2517 41.4143C30.8384 41.181 30.5117 40.851 30.2717 40.4243C30.0384 39.991 29.9217 39.491 29.9217 38.9243C29.9217 38.3643 30.0417 37.871 30.2817 37.4443C30.5284 37.011 30.8617 36.681 31.2817 36.4543C31.7017 36.221 32.1717 36.1043 32.6917 36.1043C33.2117 36.1043 33.6817 36.221 34.1017 36.4543C34.5217 36.681 34.8517 37.0076 35.0917 37.4343C35.3384 37.861 35.4617 38.3576 35.4617 38.9243C35.4617 39.491 35.335 39.991 35.0817 40.4243C34.835 40.851 34.4984 41.181 34.0717 41.4143C33.645 41.6476 33.1717 41.7643 32.6517 41.7643ZM32.6517 40.9643C32.9784 40.9643 33.285 40.8876 33.5717 40.7343C33.8584 40.581 34.0884 40.351 34.2617 40.0443C34.4417 39.7376 34.5317 39.3643 34.5317 38.9243C34.5317 38.4843 34.445 38.111 34.2717 37.8043C34.0984 37.4976 33.8717 37.271 33.5917 37.1243C33.3117 36.971 33.0084 36.8943 32.6817 36.8943C32.3484 36.8943 32.0417 36.971 31.7617 37.1243C31.4884 37.271 31.2684 37.4976 31.1017 37.8043C30.935 38.111 30.8517 38.4843 30.8517 38.9243C30.8517 39.371 30.9317 39.7476 31.0917 40.0543C31.2584 40.361 31.4784 40.591 31.7517 40.7443C32.025 40.891 32.325 40.9643 32.6517 40.9643ZM43.2882 36.0943C43.7149 36.0943 44.0949 36.1843 44.4282 36.3643C44.7615 36.5376 45.0249 36.801 45.2182 37.1543C45.4115 37.5076 45.5082 37.9376 45.5082 38.4443V41.6743H44.6082V38.5743C44.6082 38.0276 44.4715 37.611 44.1982 37.3243C43.9315 37.031 43.5682 36.8843 43.1082 36.8843C42.6349 36.8843 42.2582 37.0376 41.9782 37.3443C41.6982 37.6443 41.5582 38.081 41.5582 38.6543V41.6743H40.6582V38.5743C40.6582 38.0276 40.5215 37.611 40.2482 37.3243C39.9815 37.031 39.6182 36.8843 39.1582 36.8843C38.6849 36.8843 38.3082 37.0376 38.0282 37.3443C37.7482 37.6443 37.6082 38.081 37.6082 38.6543V41.6743H36.6982V36.1943H37.6082V36.9843C37.7882 36.6976 38.0282 36.4776 38.3282 36.3243C38.6349 36.171 38.9715 36.0943 39.3382 36.0943C39.7982 36.0943 40.2049 36.1976 40.5582 36.4043C40.9115 36.611 41.1749 36.9143 41.3482 37.3143C41.5015 36.9276 41.7549 36.6276 42.1082 36.4143C42.4615 36.201 42.8549 36.0943 43.2882 36.0943ZM52.0409 38.7243C52.0409 38.8976 52.0309 39.081 52.0109 39.2743H47.6309C47.6643 39.8143 47.8476 40.2376 48.1809 40.5443C48.5209 40.8443 48.9309 40.9943 49.4109 40.9943C49.8043 40.9943 50.1309 40.9043 50.3909 40.7243C50.6576 40.5376 50.8443 40.291 50.9509 39.9843H51.9309C51.7843 40.511 51.4909 40.941 51.0509 41.2743C50.6109 41.601 50.0643 41.7643 49.4109 41.7643C48.8909 41.7643 48.4243 41.6476 48.0109 41.4143C47.6043 41.181 47.2843 40.851 47.0509 40.4243C46.8176 39.991 46.7009 39.491 46.7009 38.9243C46.7009 38.3576 46.8143 37.861 47.0409 37.4343C47.2676 37.0076 47.5843 36.681 47.9909 36.4543C48.4043 36.221 48.8776 36.1043 49.4109 36.1043C49.9309 36.1043 50.3909 36.2176 50.7909 36.4443C51.1909 36.671 51.4976 36.9843 51.7109 37.3843C51.9309 37.7776 52.0409 38.2243 52.0409 38.7243ZM51.1009 38.5343C51.1009 38.1876 51.0243 37.891 50.8709 37.6443C50.7176 37.391 50.5076 37.201 50.2409 37.0743C49.9809 36.941 49.6909 36.8743 49.3709 36.8743C48.9109 36.8743 48.5176 37.021 48.1909 37.3143C47.8709 37.6076 47.6876 38.0143 47.6409 38.5343H51.1009Z" fill="#010002"/>
</svg>
