<svg width="75" height="46" viewBox="0 0 75 46" fill="none" xmlns="http://www.w3.org/2000/svg">
<path fill-rule="evenodd" clip-rule="evenodd" d="M52.4997 22.4538C52.4527 22.3617 52.3853 22.2792 52.3016 22.2114C52.2179 22.1436 52.1196 22.0919 52.0129 22.0596C51.823 22.0048 51.4555 21.9763 51.2388 21.9369C49.8561 21.6759 48.5316 21.2087 47.32 20.5548C46.9427 20.3533 46.9963 20.3817 47.1302 20.0816C47.432 19.4092 46.7529 18.9864 46.1711 18.6382C45.6003 18.3154 45.0049 18.0292 44.3894 17.7817C44.2896 17.7401 44.1801 17.6963 44.0754 17.6569C43.9708 17.6174 43.8661 17.5232 43.7687 17.5583C43.6689 17.6262 43.7371 17.7598 43.7444 17.8693C43.7573 18.0956 43.7435 18.3225 43.703 18.5462C43.6884 18.6228 43.6422 18.7827 43.6422 18.8353C43.6758 18.5582 43.6913 18.2795 43.6884 18.0008C43.6293 17.233 43.4599 16.4754 43.1846 15.7468C43.0251 15.3172 42.7971 14.9107 42.5079 14.5399C42.3351 14.3209 41.7047 13.7032 41.3955 13.7338C41.4449 13.6579 41.4994 13.5848 41.5586 13.5148C41.7184 13.3043 41.8631 13.0848 41.9919 12.8577C42.4737 11.9939 42.6956 11.0315 42.6354 10.0664C42.5751 9.10141 42.2349 8.16743 41.6487 7.35757C41.2456 6.80159 40.7285 6.31986 40.125 5.93819C39.4239 5.48121 38.6212 5.16627 37.772 5.01502C36.9229 4.86378 36.0474 4.87981 35.2057 5.06203C33.7453 5.34897 32.7547 6.00828 31.8589 6.95235L31.5157 7.33786C31.435 7.09174 31.3852 6.83826 31.3672 6.58217C31.3443 6.31052 31.3764 6.03738 31.4622 5.7761C31.6137 5.35877 31.879 4.98225 32.2338 4.6809C32.964 4.05882 33.4094 4.05444 34.2248 3.79378C34.8176 3.62233 35.3429 3.30079 35.7379 2.86765C36.1329 2.43451 36.3808 1.90812 36.452 1.35148C36.4971 1.07656 36.5215 0.799205 36.525 0.521317C36.525 0.328561 36.5469 0.282562 36.3327 0.256278C36.0406 0.223421 34.2029 0.0240945 34.1421 0H33.9279C33.8451 0.0744738 33.8841 0.144567 33.9279 0.247516C34.2662 1.30329 34.0179 2.0546 33.0005 2.70296C32.7037 2.87489 32.3938 3.02787 32.0731 3.16076C31.4762 3.49413 31.0263 4.00352 30.8001 4.60204C30.6019 5.16268 30.5251 5.75234 30.5737 6.33903C30.6025 6.53285 30.6147 6.72837 30.6103 6.92387C30.4155 6.48509 30.2687 6.03025 30.1721 5.56582C29.8752 4.16834 30.1721 2.95267 31.4086 2.09184L31.5522 1.99984C31.618 1.9626 31.6569 1.9626 31.6423 1.87718C31.5863 1.8487 30.1819 1.74575 29.9944 1.72604C29.2058 1.65376 29.3178 1.56833 28.9843 2.36783C28.4488 3.64264 28.2955 5.12336 29.0476 6.38941C29.352 6.90631 29.7558 7.37055 30.2403 7.76061C30.2841 7.79346 30.3133 7.82632 30.3571 7.86137C31.1117 8.43744 30.9656 8.14393 30.7076 9.01571L30.6297 9.2917C30.6235 9.30503 30.6153 9.31754 30.6054 9.32894C30.6008 9.1915 30.6189 9.05421 30.6589 8.92152C30.7052 8.75505 30.6906 8.70248 30.5518 8.63239C30.3449 8.53382 30.1234 8.45059 29.9044 8.36297C28.9746 7.98622 27.8087 7.67737 26.7645 7.86356C25.304 8.12422 24.2501 9.64217 25.3211 10.8951C25.6667 11.3003 26.9008 11.4646 27.5799 11.4317C27.8768 11.4164 28.1519 11.3616 28.4561 11.3616C28.9859 11.362 29.5057 11.4915 29.9604 11.7362C30.0723 11.7931 30.2038 11.8282 30.1721 11.9815C30.0164 12.7306 30.2719 13.0242 30.0456 13.5564C29.9993 13.9628 29.9993 14.3723 30.0456 14.7787C30.3571 16.9516 31.781 18.3315 33.9765 18.9689C34.2154 19.044 34.4593 19.1055 34.7068 19.1529C34.4171 19.1814 33.6236 18.9536 33.3559 18.8703C31.2577 18.2132 29.8411 16.6405 29.8192 14.5552C29.8192 14.104 29.9068 14.0624 29.6099 13.9945C29.3808 13.9401 29.1472 13.9027 28.9113 13.8828C27.4752 13.7645 26.392 14.4085 25.8663 15.6351C25.5287 16.4762 25.4332 17.3804 25.5888 18.2636C25.8322 19.4968 26.7839 20.2744 27.9182 20.6599C28.1616 20.741 28.1397 20.7453 28.3296 21.0454C28.45 21.2044 28.5198 21.39 28.5316 21.5821C28.2767 21.6511 28.0174 21.7059 27.7551 21.7463C27.5006 21.7961 27.2495 21.859 27.003 21.9347C26.7596 22.0136 26.1097 22.2414 26.3093 22.548C26.5308 22.8919 27.9085 22.8985 28.3028 22.9138C29.2399 22.9489 31.0362 23.0036 31.8784 22.6948C32.0707 22.6247 32.3968 22.4911 32.3141 22.2567C32.1583 21.8033 30.676 21.5996 30.2111 21.5514C30.087 21.5512 29.9659 21.5167 29.8645 21.4524C29.763 21.3881 29.686 21.2973 29.6439 21.1922C29.5252 20.9879 29.4524 20.7646 29.4297 20.5351C29.4711 20.4562 29.6731 20.5022 29.9604 20.3029C30.1024 20.1973 30.2192 20.0669 30.3036 19.9196C30.406 19.7586 30.4707 19.5804 30.4934 19.396C30.5068 19.2825 30.5068 19.1679 30.4934 19.0543C30.4788 18.9602 30.4399 18.855 30.435 18.7696C30.4846 18.8643 30.5167 18.9657 30.5299 19.0697C30.581 19.4377 30.5884 19.3325 31.5328 19.3347C33.1157 19.3543 34.6935 19.5009 36.2475 19.7728C37.0215 19.9064 37.6325 20.0335 38.3822 20.2109C39.0053 20.3489 39.1562 20.5 39.3144 20.1934C39.6633 19.5417 39.9029 18.8471 40.0252 18.1322C40.0617 18.4542 39.8158 19.2887 39.7063 19.5866C39.5481 20.0247 39.2536 20.5307 39.2 20.8636C38.9323 22.5612 41.2154 22.3027 42.1477 21.7989C42.2459 21.7421 42.3402 21.68 42.43 21.6127C42.5055 21.5602 42.615 21.4309 42.6734 21.3937C42.7756 21.3411 43.4158 21.3937 43.5886 21.3937C44.1736 21.3935 44.7567 21.3333 45.3265 21.2141C45.458 21.1856 45.5845 21.1549 45.7111 21.1199C45.8815 21.0717 45.918 21.0323 46.0957 21.1002C46.4953 21.2176 46.8663 21.4027 47.1886 21.6456C47.2324 21.6806 47.2762 21.7244 47.23 21.777C47.1837 21.8296 47.23 21.7902 47.1618 21.8011H47.0961C46.8283 21.8055 46.5704 21.8929 46.3659 22.0486C46.103 22.2677 46.0981 22.5458 46.4973 22.6663C47.1397 22.8263 47.7988 22.9262 48.464 22.9642C49.2218 23.0135 49.9828 23.0091 50.7399 22.9511C51.0198 22.9314 52.6019 22.8744 52.4948 22.4538H52.4997ZM31.8614 11.136V11.2149C31.8614 13.3702 34.1956 14.5355 36.693 14.5355C38.179 14.5396 39.6095 14.0281 40.6872 13.1074C40.9604 12.8641 41.1998 12.592 41.4004 12.2969C41.6 12.045 41.2836 12.1436 40.8795 12.1765C37.9781 12.413 34.7944 12.1765 32.1486 11.0813C31.893 10.9783 31.8614 10.9476 31.8614 11.1382V11.136ZM41.9335 23.6213C41.9832 23.6477 42.0304 23.6777 42.0746 23.7111C42.318 23.8579 42.7537 24.0528 43.0483 23.917C43.1967 23.8513 43.1505 23.7506 43.2211 23.6191C43.3744 23.5972 43.5205 23.5951 43.5984 23.514C43.7103 23.3957 43.8223 22.881 43.0385 22.789C42.7197 22.7517 42.4203 22.824 42.0844 22.789C41.7485 22.7539 41.6292 22.6138 41.3542 22.5349C40.7602 22.3662 40.6361 22.8547 39.6187 22.6006C39.3339 22.5283 39.0856 22.3947 38.8885 22.6181C38.8176 22.7149 38.7231 22.7958 38.6121 22.8546C38.5012 22.9135 38.3767 22.9487 38.2483 22.9576C38.0268 22.9993 37.5887 23.0277 37.4475 23.1351C37.1359 23.3672 37.6374 24.0572 38.3992 23.6279C38.6085 23.5118 38.7229 23.3563 39.0662 23.3147C39.587 23.2555 40.2053 23.5929 40.5728 23.7681C40.8893 23.917 41.3712 24.1273 41.7339 23.8995C41.8629 23.8185 41.8556 23.7593 41.9383 23.6323L41.9335 23.6213ZM22.5 9.9532V10.1065C22.5852 10.2292 22.612 10.3431 22.8335 10.3453C22.9952 10.3296 23.1534 10.2927 23.3032 10.2358C23.2083 10.3497 23.0866 10.4088 23.0428 10.6191C23.0244 10.7109 23.0294 10.8053 23.0574 10.8951C23.1182 11.0769 23.3957 11.0856 23.5442 10.9893C23.8582 10.7702 23.9191 10.7702 24.3815 10.8118C24.5835 10.8359 24.8683 10.768 24.7612 10.5643C24.715 10.4745 24.5787 10.3957 24.4545 10.1941C24.3494 10.0453 24.2967 9.87139 24.3032 9.69514C24.3097 9.51889 24.3752 9.34851 24.4911 9.20628C24.7637 8.80543 25.1896 8.70467 24.8805 8.45497C24.6371 8.24907 24.0359 8.38487 23.7584 8.51849C23.5393 8.62144 23.6586 8.73753 23.3665 8.79667C22.4878 8.94781 22.7337 9.42532 22.6363 9.72321C22.6227 9.76164 22.6056 9.799 22.5852 9.83492L22.5 9.9532ZM31.7494 8.8361C32.0153 8.22281 32.4002 7.65692 32.8861 7.16482C33.3678 6.67981 33.9333 6.26784 34.5607 5.94476C34.7335 5.844 34.938 5.76515 35.1157 5.66439C34.7554 5.66439 34.1421 5.95352 33.8816 6.08933C33.1728 6.47673 32.5776 7.01156 32.1461 7.6489C31.9685 7.92489 31.6958 8.43525 31.747 8.84048L31.7494 8.8361ZM34.1688 12.3407C34.1275 12.459 33.9887 12.4415 33.9668 12.6255C33.9593 12.6887 33.9689 12.7525 33.9948 12.8116C34.0206 12.8708 34.062 12.9234 34.1153 12.965C34.1708 13.0033 34.237 13.0271 34.3066 13.0336C34.3762 13.0402 34.4464 13.0293 34.5096 13.0022C34.6995 12.9168 34.6751 12.8139 34.7749 12.7635C34.8382 12.8292 34.8577 12.8949 34.9867 12.9037C35.0919 12.9124 35.198 12.8981 35.2958 12.8621C35.2958 12.7788 35.2033 12.7022 35.1206 12.643L34.8771 12.4678C34.313 12.0907 33.6325 11.881 32.9299 11.8676C33.0419 12.0078 34.0033 12.1261 34.1664 12.3407H34.1688ZM37.2674 12.9628C37.3209 13.022 37.4499 13.4381 37.854 13.2717C37.9121 13.2476 37.9622 13.2102 37.9993 13.1634C38.0364 13.1165 38.0594 13.0617 38.0658 13.0044C38.0852 12.8161 37.9611 12.7854 37.9684 12.6474C38.1585 12.582 38.359 12.5443 38.5623 12.5357C38.6694 12.5357 38.7765 12.516 38.8836 12.5116H39.0515C39.1197 12.5116 39.1708 12.5116 39.2171 12.4744C39.1781 12.4196 39.1221 12.4306 39.0394 12.4218C38.2816 12.3202 37.5081 12.4563 36.8487 12.8073C36.7854 12.838 36.7124 12.8511 36.7197 12.9146C36.727 12.9782 36.9996 13.0329 37.0921 13.0242C37.1846 13.0154 37.17 12.9738 37.2698 12.965L37.2674 12.9628Z" fill="#1D1D21"/>
<path d="M17.5312 42.26H19.9712V43H16.6212V36.03H17.5312V42.26ZM25.9776 40.05C25.9776 40.2233 25.9676 40.4067 25.9476 40.6H21.5676C21.601 41.14 21.7843 41.5633 22.1176 41.87C22.4576 42.17 22.8676 42.32 23.3476 42.32C23.741 42.32 24.0676 42.23 24.3276 42.05C24.5943 41.8633 24.781 41.6167 24.8876 41.31H25.8676C25.721 41.8367 25.4276 42.2667 24.9876 42.6C24.5476 42.9267 24.001 43.09 23.3476 43.09C22.8276 43.09 22.361 42.9733 21.9476 42.74C21.541 42.5067 21.221 42.1767 20.9876 41.75C20.7543 41.3167 20.6376 40.8167 20.6376 40.25C20.6376 39.6833 20.751 39.1867 20.9776 38.76C21.2043 38.3333 21.521 38.0067 21.9276 37.78C22.341 37.5467 22.8143 37.43 23.3476 37.43C23.8676 37.43 24.3276 37.5433 24.7276 37.77C25.1276 37.9967 25.4343 38.31 25.6476 38.71C25.8676 39.1033 25.9776 39.55 25.9776 40.05ZM25.0376 39.86C25.0376 39.5133 24.961 39.2167 24.8076 38.97C24.6543 38.7167 24.4443 38.5267 24.1776 38.4C23.9176 38.2667 23.6276 38.2 23.3076 38.2C22.8476 38.2 22.4543 38.3467 22.1276 38.64C21.8076 38.9333 21.6243 39.34 21.5776 39.86H25.0376ZM26.8788 40.24C26.8788 39.68 26.9921 39.19 27.2188 38.77C27.4455 38.3433 27.7555 38.0133 28.1488 37.78C28.5488 37.5467 28.9921 37.43 29.4788 37.43C29.9588 37.43 30.3755 37.5333 30.7288 37.74C31.0821 37.9467 31.3455 38.2067 31.5188 38.52V37.52H32.4388V43H31.5188V41.98C31.3388 42.3 31.0688 42.5667 30.7088 42.78C30.3555 42.9867 29.9421 43.09 29.4688 43.09C28.9821 43.09 28.5421 42.97 28.1488 42.73C27.7555 42.49 27.4455 42.1533 27.2188 41.72C26.9921 41.2867 26.8788 40.7933 26.8788 40.24ZM31.5188 40.25C31.5188 39.8367 31.4355 39.4767 31.2688 39.17C31.1021 38.8633 30.8755 38.63 30.5888 38.47C30.3088 38.3033 29.9988 38.22 29.6588 38.22C29.3188 38.22 29.0088 38.3 28.7288 38.46C28.4488 38.62 28.2255 38.8533 28.0588 39.16C27.8921 39.4667 27.8088 39.8267 27.8088 40.24C27.8088 40.66 27.8921 41.0267 28.0588 41.34C28.2255 41.6467 28.4488 41.8833 28.7288 42.05C29.0088 42.21 29.3188 42.29 29.6588 42.29C29.9988 42.29 30.3088 42.21 30.5888 42.05C30.8755 41.8833 31.1021 41.6467 31.2688 41.34C31.4355 41.0267 31.5188 40.6633 31.5188 40.25ZM34.9266 38.41C35.0866 38.0967 35.3133 37.8533 35.6066 37.68C35.9066 37.5067 36.2699 37.42 36.6966 37.42V38.36H36.4566C35.4366 38.36 34.9266 38.9133 34.9266 40.02V43H34.0166V37.52H34.9266V38.41ZM40.4571 37.42C41.1237 37.42 41.6637 37.6233 42.0771 38.03C42.4904 38.43 42.6971 39.01 42.6971 39.77V43H41.7971V39.9C41.7971 39.3533 41.6604 38.9367 41.3871 38.65C41.1137 38.3567 40.7404 38.21 40.2671 38.21C39.7871 38.21 39.4037 38.36 39.1171 38.66C38.8371 38.96 38.6971 39.3967 38.6971 39.97V43H37.7871V37.52H38.6971V38.3C38.8771 38.02 39.1204 37.8033 39.4271 37.65C39.7404 37.4967 40.0837 37.42 40.4571 37.42ZM44.6936 36.63C44.5202 36.63 44.3736 36.57 44.2536 36.45C44.1336 36.33 44.0736 36.1833 44.0736 36.01C44.0736 35.8367 44.1336 35.69 44.2536 35.57C44.3736 35.45 44.5202 35.39 44.6936 35.39C44.8602 35.39 45.0002 35.45 45.1136 35.57C45.2336 35.69 45.2936 35.8367 45.2936 36.01C45.2936 36.1833 45.2336 36.33 45.1136 36.45C45.0002 36.57 44.8602 36.63 44.6936 36.63ZM45.1336 37.52V43H44.2236V37.52H45.1336ZM49.3945 37.42C50.0612 37.42 50.6012 37.6233 51.0145 38.03C51.4278 38.43 51.6345 39.01 51.6345 39.77V43H50.7345V39.9C50.7345 39.3533 50.5978 38.9367 50.3245 38.65C50.0512 38.3567 49.6778 38.21 49.2045 38.21C48.7245 38.21 48.3412 38.36 48.0545 38.66C47.7745 38.96 47.6345 39.3967 47.6345 39.97V43H46.7245V37.52H47.6345V38.3C47.8145 38.02 48.0578 37.8033 48.3645 37.65C48.6778 37.4967 49.0212 37.42 49.3945 37.42ZM55.421 37.43C55.8943 37.43 56.3076 37.5333 56.661 37.74C57.021 37.9467 57.2876 38.2067 57.461 38.52V37.52H58.381V43.12C58.381 43.62 58.2743 44.0633 58.061 44.45C57.8476 44.8433 57.541 45.15 57.141 45.37C56.7476 45.59 56.2876 45.7 55.761 45.7C55.041 45.7 54.441 45.53 53.961 45.19C53.481 44.85 53.1976 44.3867 53.111 43.8H54.011C54.111 44.1333 54.3176 44.4 54.631 44.6C54.9443 44.8067 55.321 44.91 55.761 44.91C56.261 44.91 56.6676 44.7533 56.981 44.44C57.301 44.1267 57.461 43.6867 57.461 43.12V41.97C57.281 42.29 57.0143 42.5567 56.661 42.77C56.3076 42.9833 55.8943 43.09 55.421 43.09C54.9343 43.09 54.491 42.97 54.091 42.73C53.6976 42.49 53.3876 42.1533 53.161 41.72C52.9343 41.2867 52.821 40.7933 52.821 40.24C52.821 39.68 52.9343 39.19 53.161 38.77C53.3876 38.3433 53.6976 38.0133 54.091 37.78C54.491 37.5467 54.9343 37.43 55.421 37.43ZM57.461 40.25C57.461 39.8367 57.3776 39.4767 57.211 39.17C57.0443 38.8633 56.8176 38.63 56.531 38.47C56.251 38.3033 55.941 38.22 55.601 38.22C55.261 38.22 54.951 38.3 54.671 38.46C54.391 38.62 54.1676 38.8533 54.001 39.16C53.8343 39.4667 53.751 39.8267 53.751 40.24C53.751 40.66 53.8343 41.0267 54.001 41.34C54.1676 41.6467 54.391 41.8833 54.671 42.05C54.951 42.21 55.261 42.29 55.601 42.29C55.941 42.29 56.251 42.21 56.531 42.05C56.8176 41.8833 57.0443 41.6467 57.211 41.34C57.3776 41.0267 57.461 40.6633 57.461 40.25Z" fill="#010002"/>
</svg>
