<svg width="179" height="96" viewBox="0 0 179 96" fill="none" xmlns="http://www.w3.org/2000/svg">
<path fill-rule="evenodd" clip-rule="evenodd" d="M130.073 65.4916C129.963 65.2449 129.805 65.0239 129.61 64.8424C129.414 64.6608 129.184 64.5225 128.935 64.4359C128.491 64.2893 127.632 64.213 127.125 64.1075C123.892 63.4086 120.796 62.1578 117.963 60.4068C117.081 59.8673 117.207 59.9435 117.52 59.14C118.225 57.3396 116.638 56.2077 115.277 55.2752C113.943 54.4109 112.551 53.6446 111.112 52.9821C110.879 52.8706 110.623 52.7533 110.378 52.6478C110.133 52.5422 109.889 52.29 109.661 52.3839C109.428 52.5657 109.587 52.9234 109.604 53.2167C109.634 53.8225 109.602 54.43 109.507 55.0289C109.473 55.2341 109.365 55.6623 109.365 55.803C109.444 55.061 109.48 54.3149 109.473 53.5685C109.335 51.513 108.939 49.4845 108.295 47.5337C107.922 46.3834 107.389 45.2949 106.713 44.3022C106.309 43.7158 104.835 42.0619 104.113 42.144C104.228 41.9408 104.356 41.7449 104.494 41.5575C104.868 40.9938 105.206 40.4061 105.507 39.7981C106.633 37.4852 107.152 34.9085 107.011 32.3247C106.871 29.7408 106.075 27.2401 104.705 25.0717C103.762 23.5831 102.553 22.2933 101.142 21.2714C99.5034 20.0478 97.6268 19.2046 95.6415 18.7996C93.6563 18.3947 91.6095 18.4376 89.6418 18.9255C86.2276 19.6938 83.9115 21.4591 81.8174 23.9868L81.0151 25.019C80.8264 24.36 80.71 23.6813 80.6679 22.9956C80.6143 22.2683 80.6895 21.537 80.8899 20.8374C81.2441 19.72 81.8643 18.7119 82.6938 17.905C84.4009 16.2394 85.4423 16.2277 87.3486 15.5298C88.7344 15.0708 89.9625 14.2098 90.8859 13.0501C91.8094 11.8904 92.389 10.481 92.5554 8.99062C92.661 8.25453 92.718 7.51192 92.7261 6.76788C92.7261 6.25178 92.7773 6.12862 92.2765 6.05825C91.5937 5.97027 87.2974 5.43658 87.1551 5.37207H86.6543C86.4609 5.57147 86.5519 5.75914 86.6543 6.03479C87.4453 8.86159 86.8649 10.8732 84.4863 12.6092C83.7923 13.0695 83.0678 13.4791 82.3182 13.8349C80.9227 14.7275 79.8709 16.0914 79.3421 17.6939C78.8787 19.195 78.699 20.7738 78.8128 22.3446C78.8802 22.8636 78.9087 23.3871 78.8982 23.9105C78.4428 22.7357 78.0998 21.5179 77.8739 20.2744C77.1797 16.5327 77.8739 13.2777 80.7647 10.9729L81.1004 10.7266C81.2541 10.6269 81.3451 10.6269 81.311 10.3982C81.1801 10.3219 77.8967 10.0463 77.4585 9.99349C75.6148 9.79995 75.8766 9.57123 75.097 11.7119C73.8451 15.1251 73.4865 19.0897 75.2449 22.4795C75.9566 23.8635 76.9006 25.1065 78.0333 26.1509C78.1357 26.2388 78.204 26.3268 78.3064 26.4206C80.0704 27.9631 79.729 27.1772 79.1258 29.5114L78.9437 30.2503C78.9291 30.286 78.91 30.3195 78.8868 30.35C78.8762 29.982 78.9184 29.6144 79.012 29.2592C79.1201 28.8135 79.086 28.6727 78.7616 28.485C78.2779 28.2211 77.7601 27.9983 77.248 27.7637C75.0742 26.7549 72.3485 25.928 69.9072 26.4265C66.4929 27.1244 64.029 31.1887 66.5328 34.5433C67.3408 35.6283 70.2259 36.0681 71.8135 35.9802C72.5078 35.9391 73.1508 35.7925 73.8621 35.7925C75.1007 35.7936 76.3159 36.1401 77.3788 36.7954C77.6406 36.9479 77.9479 37.0417 77.8739 37.4522C77.5097 39.458 78.1072 40.2438 77.578 41.669C77.4699 42.757 77.4699 43.8535 77.578 44.9415C78.3064 50.7593 81.6353 54.4541 86.7681 56.1608C87.3266 56.3619 87.8967 56.5264 88.4753 56.6534C87.7981 56.7296 85.943 56.1197 85.3171 55.8968C80.4119 54.1374 77.1 49.9265 77.0488 44.3433C77.0488 43.1352 77.2537 43.0237 76.5594 42.8419C76.0239 42.6962 75.4777 42.5962 74.9262 42.5428C71.5689 42.2261 69.0366 43.9504 67.8074 47.2346C67.0182 49.4865 66.795 51.9076 67.1587 54.2723C67.7278 57.5742 69.9528 59.6561 72.6045 60.6883C73.1736 60.9053 73.1224 60.9171 73.5662 61.7205C73.8477 62.1462 74.0111 62.643 74.0385 63.1574C73.4427 63.3422 72.8365 63.4891 72.2233 63.5972C71.6282 63.7304 71.0411 63.8988 70.4649 64.1016C69.8959 64.3127 68.3765 64.9227 68.8431 65.7437C69.3609 66.6645 72.5818 66.6821 73.5036 66.7232C75.6945 66.817 79.894 66.9636 81.863 66.1367C82.3125 65.949 83.075 65.5913 82.8815 64.9637C82.5174 63.7497 79.0518 63.2043 77.965 63.0753C77.6748 63.0749 77.3919 62.9823 77.1546 62.8102C76.9174 62.6381 76.7373 62.3948 76.6391 62.1135C76.3615 61.5666 76.1913 60.9688 76.1383 60.354C76.2351 60.1429 76.7074 60.2661 77.3788 59.7324C77.711 59.4498 77.9839 59.1006 78.1812 58.7061C78.4208 58.2751 78.5719 57.798 78.6251 57.3044C78.6563 57.0003 78.6563 56.6936 78.6251 56.3895C78.5909 56.1373 78.4999 55.8558 78.4885 55.6271C78.6045 55.8806 78.6795 56.152 78.7104 56.4305C78.8299 57.4158 78.847 57.1343 81.0549 57.1402C84.7556 57.1927 88.4443 57.5853 92.0774 58.3131C93.887 58.6709 95.3153 59.011 97.0679 59.4861C98.5247 59.8555 98.8775 60.2602 99.2474 59.4391C100.063 57.6944 100.623 55.8346 100.909 53.9204C100.994 54.7825 100.42 57.017 100.164 57.8146C99.7937 58.9876 99.1051 60.3423 98.9799 61.2338C98.354 65.7789 103.692 65.0869 105.871 63.738C106.101 63.586 106.321 63.4195 106.531 63.2395C106.708 63.0987 106.964 62.7527 107.1 62.653C107.339 62.5123 108.836 62.653 109.24 62.653C110.608 62.6525 111.971 62.4912 113.303 62.1721C113.61 62.0959 113.906 62.0138 114.202 61.9199C114.6 61.7909 114.686 61.6853 115.101 61.8672C116.035 62.1815 116.903 62.6772 117.656 63.3275C117.759 63.4213 117.861 63.5386 117.753 63.6794C117.645 63.8201 117.753 63.7145 117.594 63.7439H117.44C116.814 63.7557 116.211 63.9897 115.733 64.4066C115.118 64.9931 115.107 65.7379 116.04 66.0604C117.542 66.4889 119.083 66.7562 120.638 66.858C122.41 66.99 124.189 66.9782 125.959 66.8229C126.613 66.7701 130.312 66.6176 130.061 65.4916H130.073ZM81.8231 35.1884V35.3996C81.8231 41.1705 87.2803 44.2905 93.1187 44.2905C96.5928 44.3014 99.9373 42.9319 102.457 40.4667C103.095 39.8153 103.655 39.0867 104.124 38.2967C104.591 37.6223 103.851 37.8862 102.906 37.9742C96.1233 38.6076 88.6802 37.9742 82.4946 35.0418C81.8971 34.7662 81.8231 34.6841 81.8231 35.1943V35.1884ZM105.37 68.6175C105.487 68.6881 105.597 68.7685 105.7 68.8579C106.269 69.2509 107.288 69.7728 107.977 69.4092C108.324 69.2333 108.216 68.9635 108.381 68.6116C108.739 68.553 109.081 68.5471 109.263 68.3301C109.524 68.0134 109.786 66.6352 107.954 66.3889C107.208 66.2892 106.508 66.4827 105.723 66.3889C104.938 66.295 104.659 65.9197 104.016 65.7086C102.628 65.257 102.337 66.5648 99.9587 65.8845C99.2929 65.691 98.7125 65.3332 98.2516 65.9314C98.0859 66.1905 97.8649 66.4071 97.6055 66.5647C97.3461 66.7222 97.0552 66.8166 96.755 66.8405C96.2371 66.9519 95.2128 67.0281 94.8828 67.3155C94.1544 67.9372 95.3266 69.7846 97.1078 68.6351C97.5971 68.3242 97.8646 67.9078 98.667 67.7964C99.8847 67.6381 101.33 68.5412 102.189 69.0104C102.929 69.4092 104.056 69.9722 104.904 69.3623C105.205 69.1453 105.188 68.9869 105.382 68.6468L105.37 68.6175ZM59.9375 32.0215V32.432C60.1367 32.7604 60.1993 33.0654 60.7171 33.0713C61.0951 33.0293 61.4651 32.9305 61.8154 32.778C61.5934 33.083 61.3089 33.2413 61.2065 33.8043C61.1636 34.0502 61.1752 34.3028 61.2406 34.5433C61.3829 35.0301 62.0316 35.0535 62.3787 34.7955C63.1128 34.209 63.2551 34.209 64.3362 34.3204C64.8086 34.385 65.4743 34.2032 65.224 33.6577C65.1158 33.4173 64.7972 33.2061 64.507 32.6666C64.2613 32.2681 64.138 31.8024 64.1532 31.3305C64.1684 30.8586 64.3215 30.4024 64.5923 30.0216C65.2297 28.9483 66.2255 28.6786 65.5028 28.01C64.9337 27.4587 63.5282 27.8223 62.8795 28.1801C62.3673 28.4557 62.6462 28.7665 61.9633 28.9249C59.909 29.3295 60.4838 30.6081 60.2562 31.4057C60.2243 31.5086 60.1843 31.6086 60.1367 31.7048L59.9375 32.0215ZM81.5614 29.0304C82.183 27.3884 83.0828 25.8732 84.2188 24.5556C85.3451 23.2571 86.667 22.154 88.1339 21.289C88.5379 21.0192 89.0159 20.8081 89.4313 20.5383C88.5891 20.5383 87.1551 21.3124 86.5462 21.6761C84.8891 22.7133 83.4977 24.1453 82.4889 25.8518C82.0735 26.5907 81.4362 27.9572 81.5557 29.0422L81.5614 29.0304ZM87.2177 38.414C87.121 38.7307 86.7966 38.6838 86.7454 39.1765C86.7279 39.3456 86.7503 39.5166 86.8108 39.6748C86.8712 39.8331 86.9679 39.974 87.0925 40.0855C87.2223 40.188 87.3771 40.2516 87.5398 40.2692C87.7025 40.2868 87.8667 40.2577 88.0144 40.1852C88.4582 39.9565 88.4013 39.6808 88.6346 39.5459C88.7826 39.7219 88.8281 39.8978 89.1297 39.9213C89.3758 39.9446 89.6237 39.9063 89.8524 39.8098C89.8524 39.587 89.6362 39.3817 89.4427 39.2234L88.8736 38.7542C87.5547 37.7446 85.9637 37.183 84.3212 37.1473C84.583 37.5226 86.8307 37.8393 87.212 38.414H87.2177ZM94.4617 40.0796C94.5869 40.238 94.8885 41.3523 95.8331 40.9066C95.9689 40.842 96.086 40.742 96.1728 40.6166C96.2597 40.4911 96.3132 40.3444 96.3282 40.1911C96.3737 39.6867 96.0835 39.6046 96.1006 39.2351C96.5451 39.0601 97.0137 38.9591 97.489 38.936C97.7394 38.936 97.9898 38.8832 98.2402 38.8715H98.6328C98.7922 38.8715 98.9116 38.8715 99.0198 38.7718C98.9287 38.6252 98.7978 38.6545 98.6044 38.631C96.8329 38.359 95.0245 38.7235 93.4829 39.6632C93.335 39.7453 93.1643 39.7805 93.1813 39.9506C93.1984 40.1207 93.8357 40.2673 94.052 40.2438C94.2682 40.2204 94.2341 40.1089 94.4674 40.0855L94.4617 40.0796Z" fill="#1D1D21"/>
<path d="M30.1595 85.2148C30.1544 85.5972 30.073 85.9745 29.9205 86.3232C29.7559 86.6999 29.533 87.0465 29.2604 87.3495C28.9844 87.6593 28.6568 87.9155 28.293 88.1061C27.9425 88.2979 27.5518 88.3986 27.1549 88.3993H14.6359V85.074H23.5187C23.595 85.0861 23.6731 85.0754 23.7437 85.0432C23.8143 85.0109 23.8745 84.9586 23.9171 84.8922C23.9723 84.7346 23.9918 84.5661 23.974 84.3996V83.6489H17.4584C17.1317 83.6412 16.8116 83.5527 16.5251 83.3908C16.1878 83.2155 15.8772 82.9903 15.6033 82.7222C15.3215 82.4572 15.0815 82.1485 14.8919 81.8073C14.7086 81.4981 14.6103 81.1434 14.6074 80.781V78.8105C14.6077 78.4161 14.6891 78.0263 14.8464 77.6668C15.0047 77.2999 15.2243 76.9644 15.4951 76.6757C15.7677 76.3808 16.0921 76.142 16.4511 75.9719C16.8086 75.8041 17.1965 75.7161 17.5892 75.7139H30.1083V79.0392H21.2141C21.1397 79.0401 21.0674 79.0641 21.0065 79.1081C20.9456 79.152 20.899 79.2138 20.8726 79.2855C20.8029 79.4175 20.7621 79.5636 20.7531 79.7136V80.4174H27.3143C27.6321 80.4231 27.9471 80.4805 28.2475 80.5875C28.5699 80.6989 28.8762 80.8547 29.158 81.0508C29.428 81.2391 29.6616 81.4778 29.8465 81.7545C30.0247 82.0111 30.1202 82.3188 30.1197 82.6343L30.1595 85.2148Z" fill="#1D1D21"/>
<path d="M31.457 75.7139H44.0785C44.6327 75.695 45.1784 75.8572 45.6377 76.1772C46.0505 76.4786 46.399 76.8638 46.662 77.3091C46.926 77.7531 47.1182 78.2384 47.2311 78.746C47.3318 79.1982 47.3852 79.6602 47.3904 80.1242C47.3915 80.6979 47.3323 81.2701 47.214 81.8308C47.1079 82.3645 46.9155 82.876 46.6449 83.3439C46.4006 83.7877 46.0597 84.1671 45.6491 84.4523C45.1832 84.7427 44.6455 84.8874 44.1013 84.8687H37.5857V88.3876H31.457V75.7139ZM37.5857 81.52H40.4821C40.6188 81.5225 40.7526 81.4793 40.8634 81.3968C40.9744 81.3115 41.0673 81.2037 41.1366 81.0801C41.2113 80.947 41.2705 80.8053 41.313 80.6579C41.3558 80.5274 41.3788 80.3909 41.3812 80.2532C41.3784 80.1307 41.3631 80.0088 41.3357 79.8896C41.3058 79.7542 41.2619 79.6224 41.2048 79.4966C41.1508 79.3729 41.0711 79.2628 40.9715 79.1741C40.8768 79.085 40.7526 79.0367 40.6244 79.0392H37.5857V81.52Z" fill="#1D1D21"/>
<path d="M61.6339 75.7139C62.0292 75.7167 62.4186 75.8131 62.772 75.9954C63.132 76.1817 63.456 76.4341 63.728 76.7402C63.9962 77.0497 64.2135 77.4023 64.3711 77.7841C64.5328 78.1527 64.6162 78.5526 64.6158 78.9571V85.6253C64.6159 85.9879 64.5279 86.3448 64.3597 86.6634C64.1932 86.9987 63.9674 87.299 63.6939 87.5489C63.4191 87.8033 63.1082 88.0129 62.772 88.1706C62.455 88.324 62.1093 88.404 61.7591 88.4052H51.5163C51.168 88.4034 50.8242 88.3233 50.509 88.1706C50.1749 88.0156 49.8674 87.8056 49.5986 87.5489C49.3283 87.2945 49.1014 86.9951 48.9271 86.6634C48.7704 86.342 48.696 85.9846 48.7109 85.6253V78.9454C48.7113 78.5416 48.7927 78.1423 48.9498 77.7724C49.1096 77.3904 49.3287 77.0378 49.5986 76.7285C49.8695 76.4211 50.1937 76.1685 50.5546 75.9837C50.9078 75.8005 51.2973 75.7042 51.6927 75.7021L61.6339 75.7139ZM54.8054 84.5579C54.8297 84.6673 54.8659 84.7736 54.9135 84.8746C54.9482 84.944 55.003 85.0004 55.0703 85.0362C55.1377 85.0719 55.2141 85.0851 55.2891 85.074H58.0433C58.0996 85.0661 58.1535 85.0451 58.2008 85.0126C58.2481 84.98 58.2876 84.9369 58.3164 84.8863C58.3953 84.783 58.4657 84.6732 58.5269 84.5579V79.7606C58.5175 79.6024 58.4748 79.4483 58.4018 79.309C58.3768 79.2311 58.3288 79.1631 58.2645 79.1148C58.2002 79.0664 58.1229 79.04 58.0433 79.0392H55.272C55.1976 79.0557 55.1284 79.0912 55.0707 79.1425C55.013 79.1937 54.9688 79.259 54.9419 79.3324C54.8768 79.4656 54.8399 79.6115 54.8338 79.7606L54.8054 84.5579Z" fill="#1D1D21"/>
<path d="M65.958 75.7139H78.7957C79.334 75.6896 79.8687 75.8152 80.3436 76.0775C80.7294 76.2991 81.0544 76.6179 81.2882 77.0041C81.5161 77.3863 81.6761 77.8074 81.7605 78.2475C81.8445 78.6781 81.8884 79.116 81.8914 79.5553C81.8884 79.9485 81.8541 80.3408 81.7889 80.7282C81.7292 81.1318 81.6202 81.5259 81.4646 81.9012C81.336 82.2439 81.1425 82.5569 80.8955 82.822C80.7771 82.9397 80.6371 83.0319 80.4837 83.0934C80.3303 83.1548 80.1666 83.1841 80.0021 83.1797C79.9658 83.2185 79.9375 83.2645 79.9189 83.3149C79.9003 83.3653 79.8919 83.4191 79.894 83.473C79.894 83.5844 79.894 83.643 79.894 83.6548L83.3823 88.3817H75.7912L73.771 85.6253C73.612 85.4122 73.4197 85.2279 73.202 85.0799C72.9902 84.9375 72.7435 84.8602 72.4907 84.857H72.4452L72.2005 84.945C72.1265 84.945 72.0924 84.9978 72.0924 85.0154V88.4052H65.958V75.7139ZM72.081 81.52H74.9774C75.1175 81.5213 75.2539 81.4738 75.3644 81.3851C75.473 81.2926 75.5654 81.1815 75.6375 81.0567C75.7112 80.9251 75.7704 80.7854 75.8139 80.6403C75.852 80.5068 75.8731 80.3688 75.8765 80.2297C75.8761 80.1071 75.8608 79.9849 75.831 79.8661C75.8037 79.73 75.7597 79.5979 75.7001 79.4732C75.6469 79.349 75.5648 79.2402 75.4611 79.1565C75.3603 79.0758 75.236 79.0324 75.1083 79.0333H72.081V81.52Z" fill="#1D1D21"/>
<path d="M98.1499 75.7139V79.0392H93.6316V88.4228H87.4859V79.0392H83.0303V75.7139H98.1499Z" fill="#1D1D21"/>
<path d="M107.897 75.7139H121.259C121.573 75.7199 121.878 75.8175 122.141 75.9954C122.438 76.1888 122.702 76.4327 122.92 76.7167C123.149 77.0109 123.34 77.3341 123.489 77.6786C123.619 77.9864 123.69 78.3168 123.7 78.6521V85.9127C123.695 86.2065 123.631 86.496 123.512 86.763C123.388 87.0554 123.221 87.3264 123.017 87.5665C122.819 87.796 122.589 87.9937 122.334 88.153C122.107 88.3046 121.842 88.3861 121.572 88.3876H107.915L107.897 75.7139ZM114.043 85.0388H116.319C116.569 85.0558 116.816 84.9833 117.019 84.8335C117.186 84.6979 117.312 84.5171 117.384 84.3116C117.466 84.088 117.514 83.8525 117.526 83.6137C117.526 83.3556 117.526 83.1152 117.526 82.8923V81.3499C117.526 81.1564 117.526 80.9393 117.526 80.693C117.512 80.468 117.472 80.2455 117.406 80.0303C117.346 79.8419 117.25 79.6682 117.122 79.5201C117.058 79.4519 116.981 79.3984 116.895 79.3631C116.81 79.3277 116.719 79.3113 116.627 79.3148H114.06L114.043 85.0388Z" fill="#1D1D21"/>
<path d="M137.915 75.7139C138.31 75.7167 138.7 75.8131 139.053 75.9954C139.413 76.1817 139.737 76.4341 140.009 76.7402C140.277 77.0497 140.494 77.4023 140.652 77.7841C140.814 78.1527 140.897 78.5526 140.897 78.9571V85.6253C140.896 85.9871 140.81 86.3434 140.646 86.6634C140.476 86.9977 140.248 87.2976 139.975 87.5489C139.7 87.8033 139.389 88.0129 139.053 88.1706C138.736 88.324 138.39 88.404 138.04 88.4052H127.797C127.449 88.4034 127.105 88.3233 126.79 88.1706C126.456 88.0156 126.148 87.8056 125.88 87.5489C125.609 87.2945 125.382 86.9951 125.208 86.6634C125.036 86.3463 124.945 85.9888 124.946 85.6253V78.9454C124.947 78.5416 125.028 78.1423 125.185 77.7724C125.345 77.3904 125.564 77.0378 125.834 76.7285C126.106 76.4224 126.43 76.1699 126.79 75.9837C127.143 75.8005 127.533 75.7042 127.928 75.7021L137.915 75.7139ZM131.086 84.5579C131.111 84.6673 131.147 84.7736 131.194 84.8746C131.23 84.9434 131.285 84.9994 131.352 85.035C131.419 85.0707 131.495 85.0843 131.57 85.074H134.296C134.352 85.0661 134.406 85.0451 134.453 85.0126C134.501 84.98 134.54 84.9369 134.569 84.8863C134.648 84.783 134.718 84.6732 134.779 84.5579V79.7606C134.769 79.6033 134.729 79.4497 134.66 79.309C134.633 79.2311 134.584 79.1634 134.519 79.1152C134.454 79.067 134.376 79.0405 134.296 79.0392H131.53C131.456 79.0557 131.387 79.0912 131.329 79.1425C131.271 79.1937 131.227 79.259 131.2 79.3324C131.135 79.4656 131.098 79.6115 131.092 79.7606L131.086 84.5579Z" fill="#1D1D21"/>
<path d="M148.385 84.5579C148.43 84.6459 148.476 84.7573 148.527 84.8863C148.553 84.9488 148.599 85.0008 148.656 85.0346C148.714 85.0684 148.78 85.0822 148.846 85.074H151.566C151.627 85.0735 151.687 85.0558 151.739 85.0227C151.791 84.9896 151.834 84.9424 151.862 84.8863C151.941 84.7573 152.004 84.6459 152.049 84.5579V75.7139H158.195V85.6253C158.195 85.9871 158.109 86.3434 157.945 86.6633C157.774 86.9976 157.547 87.2976 157.273 87.5489C156.998 87.8033 156.688 88.0129 156.351 88.1706C156.036 88.3233 155.692 88.4034 155.344 88.4052H145.107C144.758 88.4018 144.413 88.3177 144.1 88.1589C143.767 87.9961 143.46 87.7826 143.189 87.5255C142.92 87.2719 142.694 86.9747 142.518 86.6458C142.353 86.3324 142.265 85.9819 142.262 85.6253V82.2237H148.407L148.385 84.5579Z" fill="#1D1D21"/>
<path d="M172.422 75.7139C172.817 75.7159 173.207 75.8123 173.56 75.9954C173.92 76.1817 174.244 76.4341 174.516 76.7402C174.786 77.0495 175.005 77.4021 175.165 77.7842C175.322 78.154 175.403 78.5533 175.404 78.9571V85.6253C175.403 85.9872 175.317 86.3434 175.153 86.6634C174.983 86.9977 174.755 87.2976 174.482 87.549C174.207 87.8033 173.896 88.0129 173.56 88.1706C173.245 88.3233 172.901 88.4034 172.553 88.4052H162.31C161.96 88.4041 161.614 88.324 161.297 88.1706C160.963 88.0142 160.656 87.8044 160.386 87.549C160.118 87.2943 159.893 86.9949 159.721 86.6634C159.546 86.3468 159.454 85.9893 159.453 85.6253V78.9454C159.453 78.5409 159.536 78.141 159.698 77.7724C159.855 77.3892 160.075 77.0363 160.347 76.7285C160.615 76.4213 160.938 76.1686 161.297 75.9837C161.659 75.7969 162.059 75.7005 162.463 75.7022L172.422 75.7139ZM165.593 84.5579C165.62 84.6674 165.658 84.7736 165.707 84.8746C165.741 84.9435 165.795 84.9998 165.861 85.0355C165.927 85.0713 166.003 85.0848 166.077 85.074H168.797C168.854 85.067 168.909 85.0463 168.958 85.0138C169.006 84.9812 169.046 84.9376 169.076 84.8864C169.151 84.7817 169.219 84.672 169.281 84.5579V79.7606C169.271 79.6033 169.23 79.4497 169.161 79.309C169.136 79.2301 169.087 79.1615 169.022 79.1131C168.956 79.0646 168.877 79.0387 168.797 79.0392H166.048C165.975 79.0561 165.907 79.0919 165.85 79.1431C165.793 79.1943 165.75 79.2595 165.724 79.3324C165.658 79.4654 165.619 79.6112 165.61 79.7606L165.593 84.5579Z" fill="#1D1D21"/>
</svg>
