<svg width="75" height="44" viewBox="0 0 75 44" fill="none" xmlns="http://www.w3.org/2000/svg">
<path fill-rule="evenodd" clip-rule="evenodd" d="M37.5002 4.67432C35.291 4.67432 33.5002 6.46518 33.5002 8.67432C33.5002 10.8835 35.291 12.6743 37.5002 12.6743C39.7093 12.6743 41.5002 10.8835 41.5002 8.67432C41.5002 6.46518 39.7093 4.67432 37.5002 4.67432ZM41.1411 13.4437C42.5751 12.3473 43.5002 10.6188 43.5002 8.67432C43.5002 5.36061 40.8139 2.67432 37.5002 2.67432C34.1864 2.67432 31.5002 5.36061 31.5002 8.67432C31.5002 10.6188 32.4252 12.3473 33.8592 13.4437C32.8537 13.8885 31.9287 14.5179 31.1362 15.3104C30.5243 15.9223 30.0095 16.6133 29.6019 17.3594C28.8498 18.7362 29.1565 20.14 30.0035 21.1327C30.819 22.0883 32.1252 22.6743 33.5002 22.6743H41.5002C42.8751 22.6743 44.1814 22.0883 44.9968 21.1327C45.8438 20.14 46.1505 18.7362 45.3984 17.3594C44.9908 16.6133 44.476 15.9223 43.8641 15.3104C43.0717 14.5179 42.1466 13.8885 41.1411 13.4437ZM37.5002 14.6743C35.6436 14.6743 33.8632 15.4118 32.5504 16.7246C32.0744 17.2006 31.6741 17.738 31.3571 18.3182C31.0501 18.8802 31.1492 19.3941 31.525 19.8345C31.9324 20.3119 32.666 20.6743 33.5002 20.6743H41.5002C42.3343 20.6743 43.068 20.3119 43.4753 19.8345C43.8511 19.3941 43.9502 18.8802 43.6432 18.3182C43.3262 17.738 42.9259 17.2006 42.4499 16.7246C41.1371 15.4118 39.3567 14.6743 37.5002 14.6743Z" fill="#010002"/>
<path d="M27.644 36.7443C27.644 37.3243 27.444 37.8076 27.044 38.1943C26.6506 38.5743 26.0473 38.7643 25.234 38.7643H23.894V41.6743H22.984V34.7043H25.234C26.0206 34.7043 26.6173 34.8943 27.024 35.2743C27.4373 35.6543 27.644 36.1443 27.644 36.7443ZM25.234 38.0143C25.7406 38.0143 26.114 37.9043 26.354 37.6843C26.594 37.4643 26.714 37.151 26.714 36.7443C26.714 35.8843 26.2206 35.4543 25.234 35.4543H23.894V38.0143H25.234ZM29.725 37.0843C29.885 36.771 30.1117 36.5276 30.405 36.3543C30.705 36.181 31.0683 36.0943 31.495 36.0943V37.0343H31.255C30.235 37.0343 29.725 37.5876 29.725 38.6943V41.6743H28.815V36.1943H29.725V37.0843ZM34.9755 41.7643C34.4621 41.7643 33.9955 41.6476 33.5755 41.4143C33.1621 41.181 32.8355 40.851 32.5955 40.4243C32.3621 39.991 32.2455 39.491 32.2455 38.9243C32.2455 38.3643 32.3655 37.871 32.6055 37.4443C32.8521 37.011 33.1855 36.681 33.6055 36.4543C34.0255 36.221 34.4955 36.1043 35.0155 36.1043C35.5355 36.1043 36.0055 36.221 36.4255 36.4543C36.8455 36.681 37.1755 37.0076 37.4155 37.4343C37.6621 37.861 37.7855 38.3576 37.7855 38.9243C37.7855 39.491 37.6588 39.991 37.4055 40.4243C37.1588 40.851 36.8221 41.181 36.3955 41.4143C35.9688 41.6476 35.4955 41.7643 34.9755 41.7643ZM34.9755 40.9643C35.3021 40.9643 35.6088 40.8876 35.8955 40.7343C36.1821 40.581 36.4121 40.351 36.5855 40.0443C36.7655 39.7376 36.8555 39.3643 36.8555 38.9243C36.8555 38.4843 36.7688 38.111 36.5955 37.8043C36.4221 37.4976 36.1955 37.271 35.9155 37.1243C35.6355 36.971 35.3321 36.8943 35.0055 36.8943C34.6721 36.8943 34.3655 36.971 34.0855 37.1243C33.8121 37.271 33.5921 37.4976 33.4255 37.8043C33.2588 38.111 33.1755 38.4843 33.1755 38.9243C33.1755 39.371 33.2555 39.7476 33.4155 40.0543C33.5821 40.361 33.8021 40.591 34.0755 40.7443C34.3488 40.891 34.6488 40.9643 34.9755 40.9643ZM41.252 36.9443H40.102V41.6743H39.192V36.9443H38.482V36.1943H39.192V35.8043C39.192 35.191 39.3486 34.7443 39.662 34.4643C39.982 34.1776 40.492 34.0343 41.192 34.0343V34.7943C40.792 34.7943 40.5086 34.8743 40.342 35.0343C40.182 35.1876 40.102 35.4443 40.102 35.8043V36.1943H41.252V36.9443ZM42.823 35.3043C42.6496 35.3043 42.503 35.2443 42.383 35.1243C42.263 35.0043 42.203 34.8576 42.203 34.6843C42.203 34.511 42.263 34.3643 42.383 34.2443C42.503 34.1243 42.6496 34.0643 42.823 34.0643C42.9896 34.0643 43.1296 34.1243 43.243 34.2443C43.363 34.3643 43.423 34.511 43.423 34.6843C43.423 34.8576 43.363 35.0043 43.243 35.1243C43.1296 35.2443 42.9896 35.3043 42.823 35.3043ZM43.263 36.1943V41.6743H42.353V36.1943H43.263ZM45.7639 34.2743V41.6743H44.8539V34.2743H45.7639ZM52.3548 38.7243C52.3548 38.8976 52.3448 39.081 52.3248 39.2743H47.9448C47.9782 39.8143 48.1615 40.2376 48.4948 40.5443C48.8348 40.8443 49.2448 40.9943 49.7248 40.9943C50.1182 40.9943 50.4448 40.9043 50.7048 40.7243C50.9715 40.5376 51.1582 40.291 51.2648 39.9843H52.2448C52.0982 40.511 51.8048 40.941 51.3648 41.2743C50.9248 41.601 50.3782 41.7643 49.7248 41.7643C49.2048 41.7643 48.7382 41.6476 48.3248 41.4143C47.9182 41.181 47.5982 40.851 47.3648 40.4243C47.1315 39.991 47.0148 39.491 47.0148 38.9243C47.0148 38.3576 47.1282 37.861 47.3548 37.4343C47.5815 37.0076 47.8982 36.681 48.3048 36.4543C48.7182 36.221 49.1915 36.1043 49.7248 36.1043C50.2448 36.1043 50.7048 36.2176 51.1048 36.4443C51.5048 36.671 51.8115 36.9843 52.0248 37.3843C52.2448 37.7776 52.3548 38.2243 52.3548 38.7243ZM51.4148 38.5343C51.4148 38.1876 51.3382 37.891 51.1848 37.6443C51.0315 37.391 50.8215 37.201 50.5548 37.0743C50.2948 36.941 50.0048 36.8743 49.6848 36.8743C49.2248 36.8743 48.8315 37.021 48.5048 37.3143C48.1848 37.6076 48.0015 38.0143 47.9548 38.5343H51.4148Z" fill="#010002"/>
</svg>
