<svg width="75" height="45" viewBox="0 0 75 45" fill="none" xmlns="http://www.w3.org/2000/svg">
<g clip-path="url(#clip0_2322_4236)">
<path fill-rule="evenodd" clip-rule="evenodd" d="M29.9794 4.52443C31.1199 3.9639 32.4056 3.8486 33.6163 4.19832C34.2054 4.36849 34.555 5.02127 34.3971 5.65634C34.2393 6.29142 33.6338 6.6683 33.0447 6.49814C32.3293 6.29149 31.5695 6.35962 30.8956 6.69084C30.2218 7.02206 29.6758 7.59574 29.3513 8.31349C29.0269 9.03123 28.9442 9.84831 29.1174 10.6246C29.2907 11.4009 29.7091 12.088 30.3009 12.5681C30.6219 12.8285 30.7864 13.2564 30.7303 13.6854C30.6743 14.1143 30.4066 14.4765 30.0313 14.6313C29.2811 14.9405 28.5919 15.4181 28.0131 16.0421C27.8181 16.2524 27.6386 16.476 27.4752 16.7112C27.1348 17.201 27.157 17.6114 27.3362 17.9789C27.5477 18.4128 28.0337 18.8627 28.7212 19.0959C29.3029 19.2932 29.6262 19.9615 29.4432 20.5887C29.2602 21.2159 28.6402 21.5644 28.0584 21.3671C26.9301 20.9844 25.9156 20.1828 25.3811 19.0865C24.8143 17.9237 24.8452 16.5249 25.7076 15.2838C25.9335 14.9585 26.1819 14.6492 26.4515 14.3586C26.8671 13.9105 27.3239 13.5169 27.8123 13.1822C27.4192 12.5834 27.1317 11.9054 26.9702 11.1816C26.677 9.86784 26.817 8.48509 27.366 7.27045C27.9151 6.05581 28.839 5.08497 29.9794 4.52443ZM44.1044 6.69084C43.4305 6.35962 42.6707 6.29149 41.9553 6.49814C41.3662 6.6683 40.7607 6.29142 40.6029 5.65634C40.445 5.02127 40.7946 4.36849 41.3837 4.19832C42.5944 3.8486 43.8801 3.9639 45.0205 4.52443C46.161 5.08497 47.0849 6.05581 47.634 7.27045C48.1831 8.48509 48.323 9.86784 48.0298 11.1816C47.8683 11.9054 47.5808 12.5834 47.1877 13.1822C47.6761 13.5169 48.1329 13.9105 48.5485 14.3586C48.8181 14.6492 49.0665 14.9585 49.2924 15.2838C50.1548 16.5249 50.1857 17.9237 49.6189 19.0865C49.0844 20.1828 48.0699 20.9844 46.9416 21.3671C46.3598 21.5644 45.7398 21.2159 45.5568 20.5887C45.3738 19.9615 45.6971 19.2932 46.2788 19.0959C46.9663 18.8627 47.4523 18.4128 47.6638 17.9789C47.843 17.6114 47.8652 17.201 47.5248 16.7112C47.3614 16.4761 47.1819 16.2524 46.9869 16.0421C46.4081 15.4181 45.7189 14.9405 44.9687 14.6313C44.5934 14.4765 44.3257 14.1143 44.2697 13.6854C44.2136 13.2564 44.3781 12.8285 44.6992 12.5681C45.2909 12.088 45.7093 11.4009 45.8826 10.6246C46.0558 9.84831 45.9731 9.03123 45.6487 8.31349C45.3242 7.59574 44.7782 7.02206 44.1044 6.69084ZM37.5001 8.76189C35.7383 8.76189 34.3101 10.3016 34.3101 12.201C34.3101 14.1004 35.7383 15.6402 37.5002 15.6402C39.262 15.6402 40.6902 14.1005 40.6902 12.201C40.6902 10.3016 39.262 8.76189 37.5001 8.76189ZM41.0817 16.556C42.1963 15.4898 42.8987 13.9338 42.8987 12.201C42.8987 8.98669 40.4817 6.38095 37.5001 6.38095C34.5186 6.38095 32.1015 8.98669 32.1015 12.201C32.1015 13.9338 32.804 15.4898 33.9186 16.556C33.1646 16.9645 32.4687 17.5032 31.8608 18.1585C31.5913 18.4491 31.3429 18.7585 31.117 19.0837C30.6105 19.8126 30.372 20.625 30.414 21.4449C30.4554 22.2522 30.7634 22.9749 31.2037 23.5584C32.0702 24.7066 33.5231 25.4286 35.0463 25.4286H39.9541C41.4772 25.4286 42.9301 24.7066 43.7966 23.5584C44.237 22.9749 44.545 22.2522 44.5863 21.4449C44.6283 20.625 44.3898 19.8126 43.8834 19.0837C43.6574 18.7585 43.4091 18.4491 43.1395 18.1585C42.5316 17.5032 41.8357 16.9645 41.0817 16.556ZM37.5002 18.0212C35.9707 18.0212 34.504 18.6762 33.4225 19.8421C33.2275 20.0523 33.0479 20.276 32.8846 20.5111C32.6598 20.8346 32.6084 21.1035 32.6192 21.3136C32.6306 21.5363 32.718 21.7922 32.9169 22.0558C33.3289 22.6017 34.1299 23.0476 35.0463 23.0476H39.9541C40.8704 23.0476 41.6715 22.6017 42.0835 22.0558C42.2824 21.7922 42.3697 21.5363 42.3811 21.3136C42.3919 21.1035 42.3405 20.8346 42.1157 20.5111C41.9524 20.276 41.7728 20.0523 41.5778 19.8421C40.4964 18.6762 39.0296 18.0212 37.5002 18.0212Z" fill="#010002"/>
</g>
<path d="M23.4542 42.6743H22.5442L18.8842 37.1243V42.6743H17.9742V35.6943H18.8842L22.5442 41.2343V35.6943H23.4542V42.6743ZM30.0455 39.7243C30.0455 39.8976 30.0355 40.081 30.0155 40.2743H25.6355C25.6688 40.8143 25.8521 41.2376 26.1855 41.5443C26.5255 41.8443 26.9355 41.9943 27.4155 41.9943C27.8088 41.9943 28.1355 41.9043 28.3955 41.7243C28.6621 41.5376 28.8488 41.291 28.9555 40.9843H29.9355C29.7888 41.511 29.4955 41.941 29.0555 42.2743C28.6155 42.601 28.0688 42.7643 27.4155 42.7643C26.8955 42.7643 26.4288 42.6476 26.0155 42.4143C25.6088 42.181 25.2888 41.851 25.0555 41.4243C24.8221 40.991 24.7055 40.491 24.7055 39.9243C24.7055 39.3576 24.8188 38.861 25.0455 38.4343C25.2721 38.0076 25.5888 37.681 25.9955 37.4543C26.4088 37.221 26.8821 37.1043 27.4155 37.1043C27.9355 37.1043 28.3955 37.2176 28.7955 37.4443C29.1955 37.671 29.5021 37.9843 29.7155 38.3843C29.9355 38.7776 30.0455 39.2243 30.0455 39.7243ZM29.1055 39.5343C29.1055 39.1876 29.0288 38.891 28.8755 38.6443C28.7221 38.391 28.5121 38.201 28.2455 38.0743C27.9855 37.941 27.6955 37.8743 27.3755 37.8743C26.9155 37.8743 26.5221 38.021 26.1955 38.3143C25.8755 38.6076 25.6921 39.0143 25.6455 39.5343H29.1055ZM32.3966 37.9443V41.1743C32.3966 41.441 32.4533 41.631 32.5666 41.7443C32.68 41.851 32.8766 41.9043 33.1566 41.9043H33.8266V42.6743H33.0066C32.5 42.6743 32.12 42.5576 31.8666 42.3243C31.6133 42.091 31.4866 41.7076 31.4866 41.1743V37.9443H30.7766V37.1943H31.4866V35.8143H32.3966V37.1943H33.8266V37.9443H32.3966ZM42.2692 37.1943L40.5592 42.6743H39.6192L38.2992 38.3243L36.9792 42.6743H36.0392L34.3192 37.1943H35.2492L36.5092 41.7943L37.8692 37.1943H38.7992L40.1292 41.8043L41.3692 37.1943H42.2692ZM45.6023 42.7643C45.089 42.7643 44.6223 42.6476 44.2023 42.4143C43.789 42.181 43.4623 41.851 43.2223 41.4243C42.989 40.991 42.8723 40.491 42.8723 39.9243C42.8723 39.3643 42.9923 38.871 43.2323 38.4443C43.479 38.011 43.8123 37.681 44.2323 37.4543C44.6523 37.221 45.1223 37.1043 45.6423 37.1043C46.1623 37.1043 46.6323 37.221 47.0523 37.4543C47.4723 37.681 47.8023 38.0076 48.0423 38.4343C48.289 38.861 48.4123 39.3576 48.4123 39.9243C48.4123 40.491 48.2857 40.991 48.0323 41.4243C47.7857 41.851 47.449 42.181 47.0223 42.4143C46.5957 42.6476 46.1223 42.7643 45.6023 42.7643ZM45.6023 41.9643C45.929 41.9643 46.2357 41.8876 46.5223 41.7343C46.809 41.581 47.039 41.351 47.2123 41.0443C47.3923 40.7376 47.4823 40.3643 47.4823 39.9243C47.4823 39.4843 47.3957 39.111 47.2223 38.8043C47.049 38.4976 46.8223 38.271 46.5423 38.1243C46.2623 37.971 45.959 37.8943 45.6323 37.8943C45.299 37.8943 44.9923 37.971 44.7123 38.1243C44.439 38.271 44.219 38.4976 44.0523 38.8043C43.8857 39.111 43.8023 39.4843 43.8023 39.9243C43.8023 40.371 43.8823 40.7476 44.0423 41.0543C44.209 41.361 44.429 41.591 44.7023 41.7443C44.9757 41.891 45.2757 41.9643 45.6023 41.9643ZM50.5588 38.0843C50.7188 37.771 50.9455 37.5276 51.2388 37.3543C51.5388 37.181 51.9022 37.0943 52.3288 37.0943V38.0343H52.0888C51.0688 38.0343 50.5588 38.5876 50.5588 39.6943V42.6743H49.6488V37.1943H50.5588V38.0843ZM56.4793 42.6743L54.3293 40.2543V42.6743H53.4193V35.2743H54.3293V39.6243L56.4393 37.1943H57.7093L55.1293 39.9243L57.7193 42.6743H56.4793Z" fill="#010002"/>
<defs>
<clipPath id="clip0_2322_4236">
<rect width="25" height="25" fill="white" transform="translate(25 0.674316)"/>
</clipPath>
</defs>
</svg>
